{
  "asset": {
    "generator": "Khronos glTF Blender I/O v1.6.16",
    "version": "2.0"
  },
  "scene": 0,
  "scenes": [
    {
      "name": "Scene",
      "nodes": [
        0,
        1,
        2,
        3,
        4,
        5,
        6,
        7,
        8,
        9,
        10,
        11,
        12,
        13,
        14,
        15,
        16,
        17,
        18,
        19
      ]
    }
  ],
  "nodes": [
    {
      "mesh": 0,
      "name": "postcard_01",
      "rotation": [
        0.7071068286895752,
        0,
        0,
        0.7071068286895752
      ],
      "translation": [
        0,
        0.2200000137090683,
        0.2200000286102295
      ]
    },
    {
      "mesh": 1,
      "name": "postcard_02",
      "rotation": [
        0.7071068286895752,
        0,
        0,
        0.7071068286895752
      ],
      "translation": [
        0.17000001668930054,
        0.2200000137090683,
        0.2200000286102295
      ]
    },
    {
      "mesh": 2,
      "name": "postcard_03",
      "rotation": [
        0.7071068286895752,
        0,
        0,
        0.7071068286895752
      ],
      "translation": [
        0.3400000035762787,
        0.2200000137090683,
        0.2200000286102295
      ]
    },
    {
      "mesh": 3,
      "name": "postcard_04",
      "rotation": [
        0.7071068286895752,
        0,
        0,
        0.7071068286895752
      ],
      "translation": [
        0.5099999904632568,
        0.2200000137090683,
        0.2200000286102295
      ]
    },
    {
      "mesh": 4,
      "name": "postcard_05",
      "rotation": [
        0.7071068286895752,
        0,
        0,
        0.7071068286895752
      ],
      "translation": [
        0,
        0.11000001430511475,
        0.2200000137090683
      ]
    },
    {
      "mesh": 5,
      "name": "postcard_06",
      "rotation": [
        0.7071068286895752,
        0,
        0,
        0.7071068286895752
      ],
      "translation": [
        0.17000001668930054,
        0.11000001430511475,
        0.2200000137090683
      ]
    },
    {
      "mesh": 6,
      "name": "postcard_07",
      "rotation": [
        0.7071068286895752,
        0,
        0,
        0.7071068286895752
      ],
      "translation": [
        0.3400000035762787,
        0.11000001430511475,
        0.2200000137090683
      ]
    },
    {
      "mesh": 7,
      "name": "postcard_08",
      "rotation": [
        0.7071068286895752,
        0,
        0,
        0.7071068286895752
      ],
      "translation": [
        0.5099999904632568,
        0.11000001430511475,
        0.2200000137090683
      ]
    },
    {
      "mesh": 8,
      "name": "postcard_09",
      "rotation": [
        0.7071068286895752,
        0,
        0,
        0.7071068286895752
      ],
      "translation": [
        0,
        0,
        0.2200000137090683
      ]
    },
    {
      "mesh": 9,
      "name": "postcard_10",
      "rotation": [
        0.7071068286895752,
        0,
        0,
        0.7071068286895752
      ],
      "translation": [
        0.17000001668930054,
        0,
        0.2200000137090683
      ]
    },
    {
      "mesh": 10,
      "name": "postcard_11",
      "rotation": [
        0.7071068286895752,
        0,
        0,
        0.7071068286895752
      ],
      "translation": [
        0.3400000035762787,
        0,
        0.2200000137090683
      ]
    },
    {
      "mesh": 11,
      "name": "postcard_12",
      "rotation": [
        0.7071068286895752,
        0,
        0,
        0.7071068286895752
      ],
      "translation": [
        0.5099999904632568,
        0,
        0.2200000137090683
      ]
    },
    {
      "mesh": 12,
      "name": "postcard_13",
      "rotation": [
        0.7071068286895752,
        0,
        0,
        0.7071068286895752
      ],
      "translation": [
        0,
        -0.10999995470046997,
        0.2200000137090683
      ]
    },
    {
      "mesh": 13,
      "name": "postcard_14",
      "rotation": [
        0.7071068286895752,
        0,
        0,
        0.7071068286895752
      ],
      "translation": [
        0.17000001668930054,
        -0.10999995470046997,
        0.2200000137090683
      ]
    },
    {
      "mesh": 14,
      "name": "postcard_15",
      "rotation": [
        0.7071068286895752,
        0,
        0,
        0.7071068286895752
      ],
      "translation": [
        0.3400000035762787,
        -0.10999995470046997,
        0.2200000137090683
      ]
    },
    {
      "mesh": 15,
      "name": "postcard_16",
      "rotation": [
        0.7071068286895752,
        0,
        0,
        0.7071068286895752
      ],
      "translation": [
        0.5099999904632568,
        -0.10999995470046997,
        0.2200000137090683
      ]
    },
    {
      "mesh": 16,
      "name": "postcard_17",
      "rotation": [
        0.7071068286895752,
        0,
        0,
        0.7071068286895752
      ],
      "translation": [
        0,
        -0.21999996900558472,
        0.2199999988079071
      ]
    },
    {
      "mesh": 17,
      "name": "postcard_18",
      "rotation": [
        0.7071068286895752,
        0,
        0,
        0.7071068286895752
      ],
      "translation": [
        0.17000001668930054,
        -0.21999996900558472,
        0.2199999988079071
      ]
    },
    {
      "mesh": 18,
      "name": "postcard_19",
      "rotation": [
        0.7071068286895752,
        0,
        0,
        0.7071068286895752
      ],
      "translation": [
        0.3400000035762787,
        -0.21999996900558472,
        0.2199999988079071
      ]
    },
    {
      "mesh": 19,
      "name": "postcard_20",
      "rotation": [
        0.7071068286895752,
        0,
        0,
        0.7071068286895752
      ],
      "translation": [
        0.5099999904632568,
        -0.21999996900558472,
        0.2199999988079071
      ]
    }
  ],
  "materials": [
    {
      "doubleSided": true,
      "name": "postcard_set_01",
      "normalTexture": {
        "index": 0
      },
      "pbrMetallicRoughness": {
        "baseColorTexture": {
          "index": 1
        },
        "metallicFactor": 0,
        "metallicRoughnessTexture": {
          "index": 2
        }
      }
    }
  ],
  "meshes": [
    {
      "name": "Cube",
      "primitives": [
        {
          "attributes": {
            "POSITION": 0,
            "NORMAL": 1,
            "TEXCOORD_0": 2
          },
          "indices": 3,
          "material": 0
        }
      ]
    },
    {
      "name": "Cube.002",
      "primitives": [
        {
          "attributes": {
            "POSITION": 4,
            "NORMAL": 5,
            "TEXCOORD_0": 6
          },
          "indices": 3,
          "material": 0
        }
      ]
    },
    {
      "name": "Cube.003",
      "primitives": [
        {
          "attributes": {
            "POSITION": 7,
            "NORMAL": 8,
            "TEXCOORD_0": 9
          },
          "indices": 3,
          "material": 0
        }
      ]
    },
    {
      "name": "Cube.004",
      "primitives": [
        {
          "attributes": {
            "POSITION": 10,
            "NORMAL": 11,
            "TEXCOORD_0": 12
          },
          "indices": 3,
          "material": 0
        }
      ]
    },
    {
      "name": "Cube.008",
      "primitives": [
        {
          "attributes": {
            "POSITION": 13,
            "NORMAL": 14,
            "TEXCOORD_0": 15
          },
          "indices": 3,
          "material": 0
        }
      ]
    },
    {
      "name": "Cube.009",
      "primitives": [
        {
          "attributes": {
            "POSITION": 16,
            "NORMAL": 17,
            "TEXCOORD_0": 18
          },
          "indices": 3,
          "material": 0
        }
      ]
    },
    {
      "name": "Cube.012",
      "primitives": [
        {
          "attributes": {
            "POSITION": 19,
            "NORMAL": 20,
            "TEXCOORD_0": 21
          },
          "indices": 3,
          "material": 0
        }
      ]
    },
    {
      "name": "Cube.013",
      "primitives": [
        {
          "attributes": {
            "POSITION": 22,
            "NORMAL": 23,
            "TEXCOORD_0": 24
          },
          "indices": 3,
          "material": 0
        }
      ]
    },
    {
      "name": "Cube.014",
      "primitives": [
        {
          "attributes": {
            "POSITION": 25,
            "NORMAL": 26,
            "TEXCOORD_0": 27
          },
          "indices": 3,
          "material": 0
        }
      ]
    },
    {
      "name": "Cube.017",
      "primitives": [
        {
          "attributes": {
            "POSITION": 28,
            "NORMAL": 29,
            "TEXCOORD_0": 30
          },
          "indices": 3,
          "material": 0
        }
      ]
    },
    {
      "name": "Cube.018",
      "primitives": [
        {
          "attributes": {
            "POSITION": 31,
            "NORMAL": 32,
            "TEXCOORD_0": 33
          },
          "indices": 3,
          "material": 0
        }
      ]
    },
    {
      "name": "Cube.019",
      "primitives": [
        {
          "attributes": {
            "POSITION": 34,
            "NORMAL": 35,
            "TEXCOORD_0": 36
          },
          "indices": 3,
          "material": 0
        }
      ]
    },
    {
      "name": "Cube.022",
      "primitives": [
        {
          "attributes": {
            "POSITION": 37,
            "NORMAL": 38,
            "TEXCOORD_0": 39
          },
          "indices": 3,
          "material": 0
        }
      ]
    },
    {
      "name": "Cube.023",
      "primitives": [
        {
          "attributes": {
            "POSITION": 40,
            "NORMAL": 41,
            "TEXCOORD_0": 42
          },
          "indices": 3,
          "material": 0
        }
      ]
    },
    {
      "name": "Cube.024",
      "primitives": [
        {
          "attributes": {
            "POSITION": 43,
            "NORMAL": 44,
            "TEXCOORD_0": 45
          },
          "indices": 3,
          "material": 0
        }
      ]
    },
    {
      "name": "Cube.027",
      "primitives": [
        {
          "attributes": {
            "POSITION": 46,
            "NORMAL": 47,
            "TEXCOORD_0": 48
          },
          "indices": 3,
          "material": 0
        }
      ]
    },
    {
      "name": "Cube.028",
      "primitives": [
        {
          "attributes": {
            "POSITION": 49,
            "NORMAL": 50,
            "TEXCOORD_0": 51
          },
          "indices": 3,
          "material": 0
        }
      ]
    },
    {
      "name": "Cube.029",
      "primitives": [
        {
          "attributes": {
            "POSITION": 52,
            "NORMAL": 53,
            "TEXCOORD_0": 54
          },
          "indices": 3,
          "material": 0
        }
      ]
    },
    {
      "name": "Cube.032",
      "primitives": [
        {
          "attributes": {
            "POSITION": 55,
            "NORMAL": 56,
            "TEXCOORD_0": 57
          },
          "indices": 3,
          "material": 0
        }
      ]
    },
    {
      "name": "Cube.033",
      "primitives": [
        {
          "attributes": {
            "POSITION": 58,
            "NORMAL": 59,
            "TEXCOORD_0": 60
          },
          "indices": 3,
          "material": 0
        }
      ]
    }
  ],
  "textures": [
    {
      "sampler": 0,
      "source": 0
    },
    {
      "sampler": 0,
      "source": 1
    },
    {
      "sampler": 0,
      "source": 2
    }
  ],
  "images": [
    {
      "mimeType": "image/jpeg",
      "name": "postcard_set_01_nor_gl",
      "uri": "textures/postcard_set_01_nor_gl_1k.jpg"
    },
    {
      "mimeType": "image/jpeg",
      "name": "postcard_set_01_diff",
      "uri": "textures/postcard_set_01_diff_1k.jpg"
    },
    {
      "mimeType": "image/jpeg",
      "name": "postcard_set_01_rough",
      "uri": "textures/postcard_set_01_rough_1k.jpg"
    }
  ],
  "accessors": [
    {
      "bufferView": 0,
      "componentType": 5126,
      "count": 118,
      "max": [
        0.08333934843540192,
        0.00006820587441325188,
        0.05249999463558197
      ],
      "min": [
        -0.08333934843540192,
        -0.00006820587441325188,
        -0.05249999463558197
      ],
      "type": "VEC3"
    },
    {
      "bufferView": 1,
      "componentType": 5126,
      "count": 118,
      "type": "VEC3"
    },
    {
      "bufferView": 2,
      "componentType": 5126,
      "count": 118,
      "type": "VEC2"
    },
    {
      "bufferView": 3,
      "componentType": 5123,
      "count": 408,
      "type": "SCALAR"
    },
    {
      "bufferView": 4,
      "componentType": 5126,
      "count": 118,
      "max": [
        0.08333934843540192,
        0.00006820587441325188,
        0.05249999463558197
      ],
      "min": [
        -0.08333934843540192,
        -0.00006820587441325188,
        -0.05249999463558197
      ],
      "type": "VEC3"
    },
    {
      "bufferView": 5,
      "componentType": 5126,
      "count": 118,
      "type": "VEC3"
    },
    {
      "bufferView": 6,
      "componentType": 5126,
      "count": 118,
      "type": "VEC2"
    },
    {
      "bufferView": 7,
      "componentType": 5126,
      "count": 118,
      "max": [
        0.08333934843540192,
        0.00006820587441325188,
        0.05249999463558197
      ],
      "min": [
        -0.08333934843540192,
        -0.00006820587441325188,
        -0.05249999463558197
      ],
      "type": "VEC3"
    },
    {
      "bufferView": 8,
      "componentType": 5126,
      "count": 118,
      "type": "VEC3"
    },
    {
      "bufferView": 9,
      "componentType": 5126,
      "count": 118,
      "type": "VEC2"
    },
    {
      "bufferView": 10,
      "componentType": 5126,
      "count": 118,
      "max": [
        0.08333934843540192,
        0.00006820587441325188,
        0.05249999463558197
      ],
      "min": [
        -0.08333934843540192,
        -0.00006820587441325188,
        -0.05249999463558197
      ],
      "type": "VEC3"
    },
    {
      "bufferView": 11,
      "componentType": 5126,
      "count": 118,
      "type": "VEC3"
    },
    {
      "bufferView": 12,
      "componentType": 5126,
      "count": 118,
      "type": "VEC2"
    },
    {
      "bufferView": 13,
      "componentType": 5126,
      "count": 118,
      "max": [
        0.08333934843540192,
        0.00006820587441325188,
        0.05249999463558197
      ],
      "min": [
        -0.08333934843540192,
        -0.00006820587441325188,
        -0.05249999463558197
      ],
      "type": "VEC3"
    },
    {
      "bufferView": 14,
      "componentType": 5126,
      "count": 118,
      "type": "VEC3"
    },
    {
      "bufferView": 15,
      "componentType": 5126,
      "count": 118,
      "type": "VEC2"
    },
    {
      "bufferView": 16,
      "componentType": 5126,
      "count": 118,
      "max": [
        0.08333934843540192,
        0.00006820587441325188,
        0.05249999463558197
      ],
      "min": [
        -0.08333934843540192,
        -0.00006820587441325188,
        -0.05249999463558197
      ],
      "type": "VEC3"
    },
    {
      "bufferView": 17,
      "componentType": 5126,
      "count": 118,
      "type": "VEC3"
    },
    {
      "bufferView": 18,
      "componentType": 5126,
      "count": 118,
      "type": "VEC2"
    },
    {
      "bufferView": 19,
      "componentType": 5126,
      "count": 118,
      "max": [
        0.08333934843540192,
        0.00006820587441325188,
        0.05249999463558197
      ],
      "min": [
        -0.08333934843540192,
        -0.00006820587441325188,
        -0.05249999463558197
      ],
      "type": "VEC3"
    },
    {
      "bufferView": 20,
      "componentType": 5126,
      "count": 118,
      "type": "VEC3"
    },
    {
      "bufferView": 21,
      "componentType": 5126,
      "count": 118,
      "type": "VEC2"
    },
    {
      "bufferView": 22,
      "componentType": 5126,
      "count": 118,
      "max": [
        0.08333934843540192,
        0.00006820587441325188,
        0.05249999463558197
      ],
      "min": [
        -0.08333934843540192,
        -0.00006820587441325188,
        -0.05249999463558197
      ],
      "type": "VEC3"
    },
    {
      "bufferView": 23,
      "componentType": 5126,
      "count": 118,
      "type": "VEC3"
    },
    {
      "bufferView": 24,
      "componentType": 5126,
      "count": 118,
      "type": "VEC2"
    },
    {
      "bufferView": 25,
      "componentType": 5126,
      "count": 118,
      "max": [
        0.08333934843540192,
        0.00006820587441325188,
        0.05249999463558197
      ],
      "min": [
        -0.08333934843540192,
        -0.00006820587441325188,
        -0.05249999463558197
      ],
      "type": "VEC3"
    },
    {
      "bufferView": 26,
      "componentType": 5126,
      "count": 118,
      "type": "VEC3"
    },
    {
      "bufferView": 27,
      "componentType": 5126,
      "count": 118,
      "type": "VEC2"
    },
    {
      "bufferView": 28,
      "componentType": 5126,
      "count": 118,
      "max": [
        0.08333934843540192,
        0.00006820587441325188,
        0.05249999463558197
      ],
      "min": [
        -0.08333934843540192,
        -0.00006820587441325188,
        -0.05249999463558197
      ],
      "type": "VEC3"
    },
    {
      "bufferView": 29,
      "componentType": 5126,
      "count": 118,
      "type": "VEC3"
    },
    {
      "bufferView": 30,
      "componentType": 5126,
      "count": 118,
      "type": "VEC2"
    },
    {
      "bufferView": 31,
      "componentType": 5126,
      "count": 118,
      "max": [
        0.08333934843540192,
        0.00006820587441325188,
        0.05249999463558197
      ],
      "min": [
        -0.08333934843540192,
        -0.00006820587441325188,
        -0.05249999463558197
      ],
      "type": "VEC3"
    },
    {
      "bufferView": 32,
      "componentType": 5126,
      "count": 118,
      "type": "VEC3"
    },
    {
      "bufferView": 33,
      "componentType": 5126,
      "count": 118,
      "type": "VEC2"
    },
    {
      "bufferView": 34,
      "componentType": 5126,
      "count": 118,
      "max": [
        0.08333934843540192,
        0.00006820587441325188,
        0.05249999463558197
      ],
      "min": [
        -0.08333934843540192,
        -0.00006820587441325188,
        -0.05249999463558197
      ],
      "type": "VEC3"
    },
    {
      "bufferView": 35,
      "componentType": 5126,
      "count": 118,
      "type": "VEC3"
    },
    {
      "bufferView": 36,
      "componentType": 5126,
      "count": 118,
      "type": "VEC2"
    },
    {
      "bufferView": 37,
      "componentType": 5126,
      "count": 118,
      "max": [
        0.08333934843540192,
        0.00006820587441325188,
        0.05249999463558197
      ],
      "min": [
        -0.08333934843540192,
        -0.00006820587441325188,
        -0.05249999463558197
      ],
      "type": "VEC3"
    },
    {
      "bufferView": 38,
      "componentType": 5126,
      "count": 118,
      "type": "VEC3"
    },
    {
      "bufferView": 39,
      "componentType": 5126,
      "count": 118,
      "type": "VEC2"
    },
    {
      "bufferView": 40,
      "componentType": 5126,
      "count": 118,
      "max": [
        0.08333934843540192,
        0.00006820587441325188,
        0.05249999463558197
      ],
      "min": [
        -0.08333934843540192,
        -0.00006820587441325188,
        -0.05249999463558197
      ],
      "type": "VEC3"
    },
    {
      "bufferView": 41,
      "componentType": 5126,
      "count": 118,
      "type": "VEC3"
    },
    {
      "bufferView": 42,
      "componentType": 5126,
      "count": 118,
      "type": "VEC2"
    },
    {
      "bufferView": 43,
      "componentType": 5126,
      "count": 118,
      "max": [
        0.08333934843540192,
        0.00006820587441325188,
        0.05249999463558197
      ],
      "min": [
        -0.08333934843540192,
        -0.00006820587441325188,
        -0.05249999463558197
      ],
      "type": "VEC3"
    },
    {
      "bufferView": 44,
      "componentType": 5126,
      "count": 118,
      "type": "VEC3"
    },
    {
      "bufferView": 45,
      "componentType": 5126,
      "count": 118,
      "type": "VEC2"
    },
    {
      "bufferView": 46,
      "componentType": 5126,
      "count": 118,
      "max": [
        0.08333934843540192,
        0.00006820587441325188,
        0.05249999463558197
      ],
      "min": [
        -0.08333934843540192,
        -0.00006820587441325188,
        -0.05249999463558197
      ],
      "type": "VEC3"
    },
    {
      "bufferView": 47,
      "componentType": 5126,
      "count": 118,
      "type": "VEC3"
    },
    {
      "bufferView": 48,
      "componentType": 5126,
      "count": 118,
      "type": "VEC2"
    },
    {
      "bufferView": 49,
      "componentType": 5126,
      "count": 118,
      "max": [
        0.08333934843540192,
        0.00006820587441325188,
        0.05249999463558197
      ],
      "min": [
        -0.08333934843540192,
        -0.00006820587441325188,
        -0.05249999463558197
      ],
      "type": "VEC3"
    },
    {
      "bufferView": 50,
      "componentType": 5126,
      "count": 118,
      "type": "VEC3"
    },
    {
      "bufferView": 51,
      "componentType": 5126,
      "count": 118,
      "type": "VEC2"
    },
    {
      "bufferView": 52,
      "componentType": 5126,
      "count": 118,
      "max": [
        0.08333934843540192,
        0.00006820587441325188,
        0.05249999463558197
      ],
      "min": [
        -0.08333934843540192,
        -0.00006820587441325188,
        -0.05249999463558197
      ],
      "type": "VEC3"
    },
    {
      "bufferView": 53,
      "componentType": 5126,
      "count": 118,
      "type": "VEC3"
    },
    {
      "bufferView": 54,
      "componentType": 5126,
      "count": 118,
      "type": "VEC2"
    },
    {
      "bufferView": 55,
      "componentType": 5126,
      "count": 118,
      "max": [
        0.08333934843540192,
        0.00006820587441325188,
        0.05249999463558197
      ],
      "min": [
        -0.08333934843540192,
        -0.00006820587441325188,
        -0.05249999463558197
      ],
      "type": "VEC3"
    },
    {
      "bufferView": 56,
      "componentType": 5126,
      "count": 118,
      "type": "VEC3"
    },
    {
      "bufferView": 57,
      "componentType": 5126,
      "count": 118,
      "type": "VEC2"
    },
    {
      "bufferView": 58,
      "componentType": 5126,
      "count": 118,
      "max": [
        0.08333934843540192,
        0.00006820587441325188,
        0.05249999463558197
      ],
      "min": [
        -0.08333934843540192,
        -0.00006820587441325188,
        -0.05249999463558197
      ],
      "type": "VEC3"
    },
    {
      "bufferView": 59,
      "componentType": 5126,
      "count": 118,
      "type": "VEC3"
    },
    {
      "bufferView": 60,
      "componentType": 5126,
      "count": 118,
      "type": "VEC2"
    }
  ],
  "bufferViews": [
    {
      "buffer": 0,
      "byteLength": 1416,
      "byteOffset": 0
    },
    {
      "buffer": 0,
      "byteLength": 1416,
      "byteOffset": 1416
    },
    {
      "buffer": 0,
      "byteLength": 944,
      "byteOffset": 2832
    },
    {
      "buffer": 0,
      "byteLength": 816,
      "byteOffset": 3776
    },
    {
      "buffer": 0,
      "byteLength": 1416,
      "byteOffset": 4592
    },
    {
      "buffer": 0,
      "byteLength": 1416,
      "byteOffset": 6008
    },
    {
      "buffer": 0,
      "byteLength": 944,
      "byteOffset": 7424
    },
    {
      "buffer": 0,
      "byteLength": 1416,
      "byteOffset": 8368
    },
    {
      "buffer": 0,
      "byteLength": 1416,
      "byteOffset": 9784
    },
    {
      "buffer": 0,
      "byteLength": 944,
      "byteOffset": 11200
    },
    {
      "buffer": 0,
      "byteLength": 1416,
      "byteOffset": 12144
    },
    {
      "buffer": 0,
      "byteLength": 1416,
      "byteOffset": 13560
    },
    {
      "buffer": 0,
      "byteLength": 944,
      "byteOffset": 14976
    },
    {
      "buffer": 0,
      "byteLength": 1416,
      "byteOffset": 15920
    },
    {
      "buffer": 0,
      "byteLength": 1416,
      "byteOffset": 17336
    },
    {
      "buffer": 0,
      "byteLength": 944,
      "byteOffset": 18752
    },
    {
      "buffer": 0,
      "byteLength": 1416,
      "byteOffset": 19696
    },
    {
      "buffer": 0,
      "byteLength": 1416,
      "byteOffset": 21112
    },
    {
      "buffer": 0,
      "byteLength": 944,
      "byteOffset": 22528
    },
    {
      "buffer": 0,
      "byteLength": 1416,
      "byteOffset": 23472
    },
    {
      "buffer": 0,
      "byteLength": 1416,
      "byteOffset": 24888
    },
    {
      "buffer": 0,
      "byteLength": 944,
      "byteOffset": 26304
    },
    {
      "buffer": 0,
      "byteLength": 1416,
      "byteOffset": 27248
    },
    {
      "buffer": 0,
      "byteLength": 1416,
      "byteOffset": 28664
    },
    {
      "buffer": 0,
      "byteLength": 944,
      "byteOffset": 30080
    },
    {
      "buffer": 0,
      "byteLength": 1416,
      "byteOffset": 31024
    },
    {
      "buffer": 0,
      "byteLength": 1416,
      "byteOffset": 32440
    },
    {
      "buffer": 0,
      "byteLength": 944,
      "byteOffset": 33856
    },
    {
      "buffer": 0,
      "byteLength": 1416,
      "byteOffset": 34800
    },
    {
      "buffer": 0,
      "byteLength": 1416,
      "byteOffset": 36216
    },
    {
      "buffer": 0,
      "byteLength": 944,
      "byteOffset": 37632
    },
    {
      "buffer": 0,
      "byteLength": 1416,
      "byteOffset": 38576
    },
    {
      "buffer": 0,
      "byteLength": 1416,
      "byteOffset": 39992
    },
    {
      "buffer": 0,
      "byteLength": 944,
      "byteOffset": 41408
    },
    {
      "buffer": 0,
      "byteLength": 1416,
      "byteOffset": 42352
    },
    {
      "buffer": 0,
      "byteLength": 1416,
      "byteOffset": 43768
    },
    {
      "buffer": 0,
      "byteLength": 944,
      "byteOffset": 45184
    },
    {
      "buffer": 0,
      "byteLength": 1416,
      "byteOffset": 46128
    },
    {
      "buffer": 0,
      "byteLength": 1416,
      "byteOffset": 47544
    },
    {
      "buffer": 0,
      "byteLength": 944,
      "byteOffset": 48960
    },
    {
      "buffer": 0,
      "byteLength": 1416,
      "byteOffset": 49904
    },
    {
      "buffer": 0,
      "byteLength": 1416,
      "byteOffset": 51320
    },
    {
      "buffer": 0,
      "byteLength": 944,
      "byteOffset": 52736
    },
    {
      "buffer": 0,
      "byteLength": 1416,
      "byteOffset": 53680
    },
    {
      "buffer": 0,
      "byteLength": 1416,
      "byteOffset": 55096
    },
    {
      "buffer": 0,
      "byteLength": 944,
      "byteOffset": 56512
    },
    {
      "buffer": 0,
      "byteLength": 1416,
      "byteOffset": 57456
    },
    {
      "buffer": 0,
      "byteLength": 1416,
      "byteOffset": 58872
    },
    {
      "buffer": 0,
      "byteLength": 944,
      "byteOffset": 60288
    },
    {
      "buffer": 0,
      "byteLength": 1416,
      "byteOffset": 61232
    },
    {
      "buffer": 0,
      "byteLength": 1416,
      "byteOffset": 62648
    },
    {
      "buffer": 0,
      "byteLength": 944,
      "byteOffset": 64064
    },
    {
      "buffer": 0,
      "byteLength": 1416,
      "byteOffset": 65008
    },
    {
      "buffer": 0,
      "byteLength": 1416,
      "byteOffset": 66424
    },
    {
      "buffer": 0,
      "byteLength": 944,
      "byteOffset": 67840
    },
    {
      "buffer": 0,
      "byteLength": 1416,
      "byteOffset": 68784
    },
    {
      "buffer": 0,
      "byteLength": 1416,
      "byteOffset": 70200
    },
    {
      "buffer": 0,
      "byteLength": 944,
      "byteOffset": 71616
    },
    {
      "buffer": 0,
      "byteLength": 1416,
      "byteOffset": 72560
    },
    {
      "buffer": 0,
      "byteLength": 1416,
      "byteOffset": 73976
    },
    {
      "buffer": 0,
      "byteLength": 944,
      "byteOffset": 75392
    }
  ],
  "samplers": [
    {
      "magFilter": 9729,
      "minFilter": 9987
    }
  ],
  "buffers": [
    {
      "byteLength": 76336,
      "uri": "postcard_set_01.bin"
    }
  ]
}